{"title":"Band of Brothers - TV Mini-Series - DVD-R Original","uid":7746649,"size":28090220991,"categoryP":"video","categoryS":"tv_shows","magnet":"?xt=urn:btih:73982a5b083b140b88891fbd532f79d32d3e529e&amp;dn=Band+of+Brothers+-+TV+Mini-Series+-+DVD-R+Original&amp;tr=udp%3A%2F%2Ftracker.openbittorrent.com%3A80&amp;tr=udp%3A%2F%2Fopen.demonii.com%3A1337&amp;tr=udp%3A%2F%2Ftracker.coppersurfer.tk%3A6969&amp;tr=udp%3A%2F%2Fexodus.desync.com%3A6969","seeders":0,"leechers":1,"uploader":"XxWillXxPEL","files":-1,"time":1350785574,"description":"Video\nID                                       : 224 (0xE0)\nFormat                                   : MPEG Video\nFormat version                           : Version 2\nFormat profile                           : Main@Main\nFormat settings, BVOP                    : Yes\nFormat settings, Matrix                  : Custom\nFormat settings, GOP                     : M=3, N=15\nDuration                                 : 29mn 8s\nBit rate mode                            : Variable\nBit rate                                 : 4 239 Kbps\nMaximum bit rate                         : 7 500 Kbps\nWidth                                    : 720 pixels\nHeight                                   : 480 pixels\nDisplay aspect ratio                     : 16:9\nFrame rate                               : 29.970 fps\nStandard                                 : NTSC\nColor space                              : YUV\nChroma subsampling                       : 4:2:0\nBit depth                                : 8 bits\nScan type                                : Interlaced\nScan order                               : Top Field First\nCompression mode                         : Lossy\nBits/(Pixel*Frame)                       : 0.409\nStream size                              : 884 MiB (86%)\n\nAudio #1\nID                                       : 189 (0xBD)-128 (0x80)\nFormat                                   : AC-3\nFormat/Info                              : Audio Coding 3\nMode extension                           : CM (complete main)\nFormat settings, Endianness              : Big\nMuxing mode                              : DVD-Video\nDuration                                 : 29mn 8s\nBit rate mode                            : Constant\nBit rate                                 : 384 Kbps\nChannel(s)                               : 6 channels\nChannel positions                        : Front: L C R, Side: L R, LFE\nSampling rate                            : 48.0 KHz\nBit depth                                : 16 bits\nCompression mode                         : Lossy\nDelay relative to video                  : -66ms\nStream size                              : 80.0 MiB (8%)\n\nAudio #2\nID                                       : 189 (0xBD)-129 (0x81)\nFormat                                   : AC-3\nFormat/Info                              : Audio Coding 3\nFormat profile                           : Dolby Digital\nMode extension                           : CM (complete main)\nFormat settings, Endianness              : Big\nMuxing mode                              : DVD-Video\nDuration                                 : 29mn 8s\nBit rate mode                            : Constant\nBit rate                                 : 192 Kbps\nChannel(s)                               : 2 channels\nChannel positions                        : Front: L R\nSampling rate                            : 48.0 KHz\nBit depth                                : 16 bits\nCompression mode                         : Lossy\nDelay relative to video                  : -67ms\nStream size                              : 40.0 MiB (4%)\n\n\n+ Subtitles: Thai and Indonesian.\n\n\n\nEnjoy and Seed!","torrent":{"xt":"urn:btih:73982a5b083b140b88891fbd532f79d32d3e529e","amp;dn":"Band+of+Brothers+-+TV+Mini-Series+-+DVD-R+Original","amp;tr":["udp%3A%2F%2Ftracker.openbittorrent.com%3A80","udp%3A%2F%2Fopen.demonii.com%3A1337","udp%3A%2F%2Ftracker.coppersurfer.tk%3A6969","udp%3A%2F%2Fexodus.desync.com%3A6969"],"infoHash":"73982a5b083b140b88891fbd532f79d32d3e529e","infoHashBuffer":{"type":"Buffer","data":[115,152,42,91,8,59,20,11,136,137,31,189,83,47,121,211,45,62,82,158]},"announce":[],"urlList":[]}}